# Blender 3.6.4
# www.blender.org
mtllib card_heart_cell.mtl
o cell_mulllti_material
v 0.573913 0.000000 -1.331996
v 0.573913 1.137353 -1.331996
v 0.573913 0.000000 -0.204978
v 0.573913 0.000000 -1.026757
v 0.573913 1.137353 -1.026757
v 0.573913 1.137353 -0.204978
v 0.573913 0.958080 -1.331996
v 0.573913 0.755056 -1.331996
v 0.000000 0.000000 -1.331996
v 0.000000 1.137353 -1.331996
v 0.000000 1.137353 -1.026757
v 0.000000 1.137353 -0.204978
v 0.000000 0.000000 -1.026757
v 0.000000 0.000000 -0.204978
v 0.000000 0.958080 -1.331996
v 0.642823 0.752283 -0.963714
v 0.642823 0.962283 -0.963714
v 0.658459 0.752283 -0.956183
v 0.658459 0.962283 -0.956183
v 0.662321 0.752283 -0.939263
v 0.662321 0.962283 -0.939263
v 0.651500 0.752283 -0.925694
v 0.651500 0.962283 -0.925694
v 0.634145 0.752283 -0.925694
v 0.634145 0.962283 -0.925694
v 0.623324 0.752283 -0.939263
v 0.623324 0.962283 -0.939263
v 0.627186 0.752283 -0.956183
v 0.627186 0.962283 -0.956183
v 0.642823 0.752283 -0.805018
v 0.642823 0.962283 -0.805018
v 0.658459 0.752283 -0.797488
v 0.658459 0.962283 -0.797488
v 0.662321 0.752283 -0.780567
v 0.662321 0.962283 -0.780567
v 0.651500 0.752283 -0.766998
v 0.651500 0.962283 -0.766998
v 0.634145 0.752283 -0.766998
v 0.634145 0.962283 -0.766998
v 0.623324 0.752283 -0.780567
v 0.623324 0.962283 -0.780567
v 0.627186 0.752283 -0.797488
v 0.627186 0.962283 -0.797488
v 0.642823 0.752283 -0.646118
v 0.642823 0.962283 -0.646118
v 0.658459 0.752283 -0.638587
v 0.658459 0.962283 -0.638587
v 0.662321 0.752283 -0.621667
v 0.662321 0.962283 -0.621667
v 0.651500 0.752283 -0.608098
v 0.651500 0.962283 -0.608098
v 0.634145 0.752283 -0.608098
v 0.634145 0.962283 -0.608098
v 0.623324 0.752283 -0.621667
v 0.623324 0.962283 -0.621667
v 0.627186 0.752283 -0.638587
v 0.627186 0.962283 -0.638587
v 0.642823 0.752283 -0.484760
v 0.642823 0.962283 -0.484760
v 0.658459 0.752283 -0.477230
v 0.658459 0.962283 -0.477230
v 0.662321 0.752283 -0.460309
v 0.662321 0.962283 -0.460309
v 0.651500 0.752283 -0.446740
v 0.651500 0.962283 -0.446740
v 0.634145 0.752283 -0.446740
v 0.634145 0.962283 -0.446740
v 0.623324 0.752283 -0.460309
v 0.623324 0.962283 -0.460309
v 0.627186 0.752283 -0.477230
v 0.627186 0.962283 -0.477230
v 0.642823 0.752283 -0.322583
v 0.642823 0.962283 -0.322583
v 0.658459 0.752283 -0.315053
v 0.658459 0.962283 -0.315053
v 0.662321 0.752283 -0.298133
v 0.662321 0.962283 -0.298133
v 0.651500 0.752283 -0.284564
v 0.651500 0.962283 -0.284564
v 0.634145 0.752283 -0.284564
v 0.634145 0.962283 -0.284564
v 0.623324 0.752283 -0.298133
v 0.623324 0.962283 -0.298133
v 0.627186 0.752283 -0.315053
v 0.627186 0.962283 -0.315053
v 0.573899 0.755056 -1.026757
v 0.573899 0.958080 -1.026757
v 0.573899 0.755056 -0.204978
v 0.573899 0.958080 -0.204978
v 0.715756 0.765830 -1.026757
v 0.715756 0.755056 -1.015984
v 0.715756 0.958080 -1.015984
v 0.715756 0.947307 -1.026757
v 0.715756 0.755056 -0.215752
v 0.715756 0.765830 -0.204978
v 0.715756 0.947307 -0.204978
v 0.715756 0.958080 -0.215752
v 0.437480 0.000000 -1.331996
v 0.437480 0.000000 -1.026757
v 0.437480 0.755056 -1.331996
v 0.437480 0.958080 -1.331996
v 0.437480 1.137353 -1.331996
v 0.437480 1.137353 -1.026757
v 0.426276 0.018126 -1.361469
v 0.000000 0.000000 -1.361469
v 0.437480 0.755056 -1.361469
v 0.426276 0.939954 -1.361469
v 0.000000 0.958080 -1.361469
v 0.437480 0.000000 -1.361469
v 0.437480 0.958080 -1.361469
v 0.000000 0.018126 -1.361469
v 0.000000 0.939954 -1.361469
v 0.426276 0.755056 -1.361469
v 0.426276 0.755056 -1.370898
v 0.000000 0.755056 -1.370898
v 0.000000 0.939954 -1.370898
v 0.000000 0.018126 -1.370898
v 0.426276 0.018126 -1.370898
v 0.426276 0.939954 -1.370898
v 0.437480 1.137353 -0.204978
v 0.437480 0.000000 -0.204978
v -0.573913 0.000000 -1.331996
v -0.573913 1.137353 -1.331996
v -0.573913 0.000000 -0.204978
v -0.573913 0.000000 -1.026757
v -0.573913 1.137353 -1.026757
v -0.573913 1.137353 -0.204978
v -0.573913 0.958080 -1.331996
v -0.573913 0.755056 -1.331996
v -0.642823 0.752283 -0.963714
v -0.642823 0.962283 -0.963714
v -0.658459 0.752283 -0.956183
v -0.658459 0.962283 -0.956183
v -0.662321 0.752283 -0.939263
v -0.662321 0.962283 -0.939263
v -0.651500 0.752283 -0.925694
v -0.651500 0.962283 -0.925694
v -0.634145 0.752283 -0.925694
v -0.634145 0.962283 -0.925694
v -0.623324 0.752283 -0.939263
v -0.623324 0.962283 -0.939263
v -0.627186 0.752283 -0.956183
v -0.627186 0.962283 -0.956183
v -0.642823 0.752283 -0.805018
v -0.642823 0.962283 -0.805018
v -0.658459 0.752283 -0.797488
v -0.658459 0.962283 -0.797488
v -0.662321 0.752283 -0.780567
v -0.662321 0.962283 -0.780567
v -0.651500 0.752283 -0.766998
v -0.651500 0.962283 -0.766998
v -0.634145 0.752283 -0.766998
v -0.634145 0.962283 -0.766998
v -0.623324 0.752283 -0.780567
v -0.623324 0.962283 -0.780567
v -0.627186 0.752283 -0.797488
v -0.627186 0.962283 -0.797488
v -0.642823 0.752283 -0.646118
v -0.642823 0.962283 -0.646118
v -0.658459 0.752283 -0.638587
v -0.658459 0.962283 -0.638587
v -0.662321 0.752283 -0.621667
v -0.662321 0.962283 -0.621667
v -0.651500 0.752283 -0.608098
v -0.651500 0.962283 -0.608098
v -0.634145 0.752283 -0.608098
v -0.634145 0.962283 -0.608098
v -0.623324 0.752283 -0.621667
v -0.623324 0.962283 -0.621667
v -0.627186 0.752283 -0.638587
v -0.627186 0.962283 -0.638587
v -0.642823 0.752283 -0.484760
v -0.642823 0.962283 -0.484760
v -0.658459 0.752283 -0.477230
v -0.658459 0.962283 -0.477230
v -0.662321 0.752283 -0.460309
v -0.662321 0.962283 -0.460309
v -0.651500 0.752283 -0.446740
v -0.651500 0.962283 -0.446740
v -0.634145 0.752283 -0.446740
v -0.634145 0.962283 -0.446740
v -0.623324 0.752283 -0.460309
v -0.623324 0.962283 -0.460309
v -0.627186 0.752283 -0.477230
v -0.627186 0.962283 -0.477230
v -0.642823 0.752283 -0.322583
v -0.642823 0.962283 -0.322583
v -0.658459 0.752283 -0.315053
v -0.658459 0.962283 -0.315053
v -0.662321 0.752283 -0.298133
v -0.662321 0.962283 -0.298133
v -0.651500 0.752283 -0.284564
v -0.651500 0.962283 -0.284564
v -0.634145 0.752283 -0.284564
v -0.634145 0.962283 -0.284564
v -0.623324 0.752283 -0.298133
v -0.623324 0.962283 -0.298133
v -0.627186 0.752283 -0.315053
v -0.627186 0.962283 -0.315053
v -0.573899 0.755056 -1.026757
v -0.573899 0.958080 -1.026757
v -0.573899 0.755056 -0.204978
v -0.573899 0.958080 -0.204978
v -0.715756 0.765830 -1.026757
v -0.715756 0.755056 -1.015984
v -0.715756 0.958080 -1.015984
v -0.715756 0.947307 -1.026757
v -0.715756 0.755056 -0.215752
v -0.715756 0.765830 -0.204978
v -0.715756 0.947307 -0.204978
v -0.715756 0.958080 -0.215752
v -0.437480 0.000000 -1.331996
v -0.437480 0.000000 -1.026757
v -0.437480 0.755056 -1.331996
v -0.437480 0.958080 -1.331996
v -0.437480 1.137353 -1.331996
v -0.437480 1.137353 -1.026757
v -0.426276 0.018126 -1.361469
v -0.437480 0.755056 -1.361469
v -0.426276 0.939954 -1.361469
v -0.437480 0.000000 -1.361469
v -0.437480 0.958080 -1.361469
v -0.426276 0.755056 -1.361469
v -0.426276 0.755056 -1.370898
v -0.426276 0.018126 -1.370898
v -0.426276 0.939954 -1.370898
v -0.437480 1.137353 -0.204978
v -0.437480 0.000000 -0.204978
v 0.573913 1.137353 0.117538
v 0.573913 0.000000 0.117538
v 0.000000 1.137353 0.117538
v 0.000000 0.000000 0.117538
v 0.573909 0.755056 0.117538
v 0.573909 0.958080 0.117538
v 0.437480 1.137353 0.117538
v 0.437480 0.000000 0.117538
v -0.573913 1.137353 0.117538
v -0.573913 0.000000 0.117538
v -0.573909 0.755056 0.117538
v -0.573909 0.958080 0.117538
v -0.437480 1.137353 0.117538
v -0.437480 0.000000 0.117538
v -0.715756 0.947307 -0.215752
v -0.715756 0.947307 -1.015984
v -0.715756 0.765830 -0.215752
v -0.715756 0.765830 -1.015984
v 0.715756 0.947307 -1.015984
v 0.715756 0.947307 -0.215752
v 0.715756 0.765830 -0.215752
v 0.715756 0.765830 -1.015984
vn -0.0000 -0.7071 0.7071
vn -0.3015 -0.3015 0.9045
vn -0.0000 1.0000 -0.0000
vn -0.3015 0.9045 0.3015
vn -0.7071 0.7071 -0.0000
vn -0.9048 -0.3012 -0.3012
vn -0.9048 -0.3012 0.3012
vn -0.6407 -0.7143 0.2816
vn -0.6407 -0.7143 -0.2816
vn -0.7071 -0.0000 0.7071
vn -0.9048 0.3012 0.3012
vn -0.6407 0.2816 0.7143
vn -0.6407 -0.2816 0.7143
vn -0.9048 0.3012 -0.3012
vn -0.6407 0.7143 -0.2816
vn -0.6407 0.7143 0.2816
vn -0.6407 -0.2816 -0.7143
vn -0.6407 0.2816 -0.7143
vn -0.5774 -0.5774 0.5774
vn -0.7071 -0.7071 -0.0000
vn -0.5774 -0.5773 0.5773
vn -0.0000 -1.0000 -0.0000
vn -0.0000 -0.0000 -1.0000
vn 0.4339 -0.0000 -0.9010
vn 0.7818 -0.0000 0.6235
vn 0.4339 -0.0000 0.9010
vn -0.4339 -0.0000 0.9010
vn -0.9749 -0.0000 0.2225
vn -0.7818 -0.0000 -0.6235
vn -0.5774 0.5774 0.5773
vn -0.5774 0.5774 0.5774
vn -0.0000 0.7071 0.7071
vn -0.3015 0.3015 0.9045
vn -0.0000 -0.0000 1.0000
vn 0.3015 -0.3015 0.9045
vn 0.3015 0.9045 0.3015
vn 0.7071 0.7071 -0.0000
vn 0.9048 -0.3012 -0.3012
vn 0.6407 -0.7143 -0.2816
vn 0.6407 -0.7143 0.2816
vn 0.9048 -0.3012 0.3012
vn 0.7071 -0.0000 0.7071
vn 0.9048 0.3012 0.3012
vn 0.6407 -0.2816 0.7143
vn 0.6407 0.2816 0.7143
vn 0.6407 0.7143 0.2816
vn 0.6407 0.7143 -0.2816
vn 0.9048 0.3012 -0.3012
vn 0.6407 0.2816 -0.7143
vn 0.6407 -0.2816 -0.7143
vn 0.5774 -0.5773 0.5774
vn 0.7071 -0.7071 -0.0000
vn 0.5774 -0.5773 0.5773
vn -0.4339 -0.0000 -0.9010
vn -0.7818 -0.0000 0.6235
vn 0.9749 -0.0000 0.2225
vn 0.7818 -0.0000 -0.6235
vn 0.5774 0.5774 0.5773
vn 0.5774 -0.5774 0.5774
vn 0.5774 0.5774 0.5774
vn 0.3015 0.3015 0.9045
vn 1.0000 -0.0000 -0.0000
vn -1.0000 -0.0000 -0.0000
vt 0.719927 0.585372
vt 0.741594 0.705660
vt 0.688609 0.708804
vt 0.676562 0.586989
vt 0.515596 0.795690
vt 0.515596 0.715124
vt 0.631065 0.715124
vt 0.631065 0.795690
vt 0.631065 0.498223
vt 0.667076 0.498223
vt 0.667076 0.715124
vt 0.305010 0.115236
vt 0.302971 0.317210
vt 0.275479 0.275409
vt 0.282832 0.154740
vt 0.231660 0.405909
vt 0.225670 0.306216
vt 0.294635 0.407356
vt 0.246986 0.279717
vt 0.273369 0.277102
vt 0.223410 0.120012
vt 0.250011 0.153533
vt 0.245103 0.278035
vt 0.280578 0.152616
vt 0.252101 0.151562
vt 0.803045 0.715218
vt 0.748319 0.698212
vt 0.803362 0.708086
vt 0.354630 0.111493
vt 0.347280 0.321011
vt 0.007051 0.308468
vt 0.004743 0.096990
vt 0.345843 0.408200
vt 0.271692 0.498251
vt 0.271692 0.715153
vt 0.156223 0.715153
vt 0.156223 0.498251
vt 0.307702 0.417686
vt 0.307702 0.498251
vt 0.271692 0.417686
vt 0.734174 0.296045
vt 0.734174 0.351472
vt 0.729594 0.351472
vt 0.729594 0.296045
vt 0.757078 0.296045
vt 0.757078 0.351472
vt 0.752498 0.351472
vt 0.752498 0.296045
vt 0.747917 0.351472
vt 0.747917 0.296045
vt 0.743336 0.351472
vt 0.743336 0.296045
vt 0.738755 0.351472
vt 0.738755 0.296045
vt 0.321769 0.742254
vt 0.321769 0.797682
vt 0.317188 0.797682
vt 0.317188 0.742254
vt 0.344673 0.742254
vt 0.344673 0.797682
vt 0.340092 0.797682
vt 0.340092 0.742254
vt 0.335512 0.797682
vt 0.335512 0.742254
vt 0.330931 0.797682
vt 0.330931 0.742254
vt 0.326350 0.797682
vt 0.326350 0.742254
vt 0.321769 0.547513
vt 0.321769 0.602941
vt 0.317188 0.602941
vt 0.317188 0.547513
vt 0.344673 0.547513
vt 0.344673 0.602941
vt 0.340092 0.602941
vt 0.340092 0.547513
vt 0.335512 0.602941
vt 0.335512 0.547513
vt 0.330931 0.602941
vt 0.330931 0.547513
vt 0.326350 0.602941
vt 0.326350 0.547513
vt 0.321769 0.417686
vt 0.321769 0.473113
vt 0.317188 0.473113
vt 0.317188 0.417686
vt 0.344673 0.417686
vt 0.344673 0.473113
vt 0.340092 0.473113
vt 0.340092 0.417686
vt 0.335512 0.473113
vt 0.335512 0.417686
vt 0.330931 0.473113
vt 0.330931 0.417686
vt 0.326350 0.473113
vt 0.326350 0.417686
vt 0.321769 0.482599
vt 0.321769 0.538027
vt 0.317188 0.538027
vt 0.317188 0.482599
vt 0.344673 0.482599
vt 0.344673 0.538027
vt 0.340092 0.538027
vt 0.340092 0.482599
vt 0.335512 0.538027
vt 0.335512 0.482599
vt 0.330931 0.538027
vt 0.330931 0.482599
vt 0.326350 0.538027
vt 0.326350 0.482599
vt 0.004743 0.400201
vt 0.667076 0.795690
vt 0.984784 0.695261
vt 0.988924 0.729124
vt 0.801513 0.752035
vt 0.738266 0.747062
vt 0.156223 0.417686
vt 0.688387 0.745367
vt 0.803492 0.705740
vt 0.752631 0.695771
vt 0.754784 0.693592
vt 0.803527 0.703100
vt 0.631065 0.803469
vt 0.515596 0.803469
vt 0.983973 0.688139
vt 0.730497 0.584978
vt 0.979535 0.685819
vt 0.991452 0.575250
vt 0.995257 0.575108
vt 0.734417 0.584832
vt 0.989485 0.575323
vt 0.977346 0.683748
vt 0.793101 0.582644
vt 0.737716 0.584709
vt 0.307702 0.715153
vt 0.515596 0.498223
vt 0.679506 0.464615
vt 0.732578 0.463805
vt 0.400127 0.795690
vt 0.400127 0.715124
vt 0.364116 0.715124
vt 0.364116 0.498223
vt 0.400127 0.498223
vt 0.413778 0.112911
vt 0.438398 0.151189
vt 0.453226 0.271723
vt 0.428334 0.314466
vt 0.498993 0.398931
vt 0.438155 0.401222
vt 0.505354 0.300411
vt 0.455442 0.273297
vt 0.482144 0.274553
vt 0.483936 0.272743
vt 0.471175 0.147995
vt 0.495640 0.112966
vt 0.468966 0.146150
vt 0.440528 0.148926
vt 0.793147 0.449698
vt 0.793994 0.456787
vt 0.739839 0.470731
vt 0.384887 0.319840
vt 0.364116 0.112331
vt 0.720108 0.314988
vt 0.714848 0.109752
vt 0.388955 0.403611
vt 0.040753 0.498251
vt 0.040753 0.715153
vt 0.004743 0.417686
vt 0.040753 0.417686
vt 0.004743 0.498251
vt 0.789469 0.231131
vt 0.794049 0.231131
vt 0.794049 0.286559
vt 0.789469 0.286559
vt 0.766564 0.231131
vt 0.771145 0.231131
vt 0.771145 0.286559
vt 0.766564 0.286559
vt 0.775726 0.231131
vt 0.775726 0.286559
vt 0.780307 0.231131
vt 0.780307 0.286559
vt 0.784888 0.231131
vt 0.784888 0.286559
vt 0.340092 0.612427
vt 0.344673 0.612427
vt 0.344673 0.667855
vt 0.340092 0.667855
vt 0.317188 0.612427
vt 0.321769 0.612427
vt 0.321769 0.667855
vt 0.317188 0.667855
vt 0.326350 0.612427
vt 0.326350 0.667855
vt 0.330931 0.612427
vt 0.330931 0.667855
vt 0.335512 0.612427
vt 0.335512 0.667855
vt 0.340092 0.677341
vt 0.344673 0.677341
vt 0.344673 0.732768
vt 0.340092 0.732768
vt 0.317188 0.677341
vt 0.321769 0.677341
vt 0.321769 0.732768
vt 0.317188 0.732768
vt 0.326350 0.677341
vt 0.326350 0.732768
vt 0.330931 0.677341
vt 0.330931 0.732768
vt 0.335512 0.677341
vt 0.335512 0.732768
vt 0.752498 0.231131
vt 0.757079 0.231131
vt 0.757079 0.286559
vt 0.752498 0.286559
vt 0.729594 0.231131
vt 0.734174 0.231131
vt 0.734174 0.286559
vt 0.729594 0.286559
vt 0.738755 0.231131
vt 0.738755 0.286559
vt 0.743336 0.231131
vt 0.743336 0.286559
vt 0.747917 0.231131
vt 0.747917 0.286559
vt 0.789469 0.296044
vt 0.794050 0.296044
vt 0.794050 0.351472
vt 0.789469 0.351472
vt 0.766565 0.296044
vt 0.771145 0.296044
vt 0.771145 0.351472
vt 0.766565 0.351472
vt 0.775726 0.296044
vt 0.775726 0.351472
vt 0.780307 0.296044
vt 0.780307 0.351472
vt 0.784888 0.296044
vt 0.784888 0.351472
vt 0.718216 0.403611
vt 0.364116 0.795690
vt 0.788877 0.413097
vt 0.977474 0.421991
vt 0.975867 0.456069
vt 0.726177 0.422765
vt 0.676562 0.428170
vt 0.794298 0.459116
vt 0.794529 0.461747
vt 0.746629 0.474857
vt 0.744321 0.472845
vt 0.400127 0.803469
vt 0.975588 0.463231
vt 0.971335 0.465875
vt 0.969307 0.468103
vt 0.004743 0.715153
vt 0.400127 0.413097
vt 0.515596 0.413097
vt 0.040753 0.800278
vt 0.004743 0.800278
vt 0.156223 0.800278
vt 0.424159 0.004876
vt 0.491886 0.006060
vt 0.364355 0.004743
vt 0.717902 0.013211
vt 0.364116 0.413097
vt 0.631065 0.413097
vt 0.307702 0.800278
vt 0.271692 0.800278
vt 0.221088 0.014347
vt 0.287963 0.008817
vt 0.347300 0.004743
vt 0.006566 0.014011
vt 0.667076 0.413097
vt 0.780337 0.004743
vt 0.783180 0.007587
vt 0.780337 0.007587
vt 0.843409 0.004743
vt 0.846253 0.007587
vt 0.843409 0.007587
vt 0.843409 0.218801
vt 0.846253 0.218801
vt 0.795510 0.221645
vt 0.792666 0.218801
vt 0.795510 0.218801
vt 0.792666 0.007587
vt 0.795510 0.007587
vt 0.795510 0.004743
vt 0.843409 0.221645
vt 0.780337 0.218801
vt 0.783180 0.218801
vt 0.729594 0.218801
vt 0.729594 0.007587
vt 0.732437 0.007587
vt 0.732437 0.218801
vt 0.732437 0.004743
vt 0.732437 0.221645
vt 0.780337 0.221645
s 1
usemtl wood
f 117/131/32 118/132/31 114/122/10 115/133/34
f 115/133/34 114/122/10 119/121/19 116/134/1
f 117/131/32 115/133/34 224/249/42 225/255/60
f 115/133/34 116/134/1 226/250/59 224/249/42
usemtl Old_brick
f 15/1/1 101/2/2 102/3/1 10/4/1
f 9/5/3 13/6/3 99/7/3 98/8/4
f 99/7/3 121/9/3 3/10/5 4/11/5
f 89/12/6 87/13/7 92/14/8 97/15/9
f 8/16/10 86/17/11 87/13/7 7/18/10
f 87/13/7 86/17/11 90/19/12 93/20/13
f 86/17/11 88/21/14 94/22/15 91/23/16
f 88/21/14 89/12/6 96/24/17 95/25/18
f 100/26/10 101/2/2 110/27/19 106/28/10
f 87/13/7 89/12/6 6/29/20 5/30/20
f 4/31/5 3/32/5 88/21/14 86/17/11
f 7/18/10 87/13/7 5/30/20 2/33/21
f 103/34/22 120/35/22 12/36/22 11/37/22
f 2/38/21 5/39/20 103/34/22 102/40/1
f 89/12/6 97/15/9 96/24/17
f 94/22/15 88/21/14 95/25/18
f 90/19/12 86/17/11 91/23/16
f 92/14/8 87/13/7 93/20/13
f 1/111/30 4/31/5 86/17/11 8/16/10
f 98/8/4 99/7/3 4/11/5 1/112/30
f 100/26/10 98/113/4 1/114/30 8/115/10
f 101/2/2 100/26/10 8/115/10 7/116/10
f 102/40/1 103/34/22 11/37/22 10/117/1
f 102/3/1 101/2/2 7/116/10 2/118/21
f 9/5/3 98/8/4 109/123/31 105/124/32
f 98/113/4 100/26/10 106/28/10 109/125/31
f 101/2/2 15/1/1 108/126/1 110/27/19
f 5/39/20 6/135/20 120/35/22 103/34/22
f 13/6/3 14/136/3 121/9/3 99/7/3
f 15/1/1 10/4/1 216/137/1 215/138/35
f 9/5/3 212/139/36 213/140/3 13/6/3
f 213/140/3 125/141/37 124/142/37 228/143/3
f 203/144/38 211/145/39 206/146/40 201/147/41
f 129/148/42 128/149/42 201/147/41 200/150/43
f 201/147/41 207/151/44 204/152/45 200/150/43
f 200/150/43 205/153/46 208/154/47 202/155/48
f 202/155/48 209/156/49 210/157/50 203/144/38
f 214/158/42 219/159/42 222/160/51 215/138/35
f 201/147/41 126/161/52 127/162/52 203/144/38
f 125/163/37 200/150/43 202/155/48 124/164/37
f 128/149/42 123/165/53 126/161/52 201/147/41
f 217/166/22 11/37/22 12/36/22 227/167/22
f 123/168/53 216/169/1 217/166/22 126/170/52
f 203/144/38 210/157/50 211/145/39
f 208/154/47 209/156/49 202/155/48
f 204/152/45 205/153/46 200/150/43
f 206/146/40 207/151/44 201/147/41
f 122/241/58 129/148/42 200/150/43 125/163/37
f 212/139/36 122/242/58 125/141/37 213/140/3
f 214/158/42 129/243/42 122/244/58 212/245/36
f 215/138/35 128/246/42 129/243/42 214/158/42
f 216/169/1 10/117/1 11/37/22 217/166/22
f 216/137/1 123/247/53 128/246/42 215/138/35
f 9/5/3 105/124/32 221/252/60 212/139/36
f 212/245/36 221/253/60 219/159/42 214/158/42
f 215/138/35 222/160/51 108/126/1 15/1/1
f 126/170/52 217/166/22 227/167/22 127/256/52
f 13/6/3 213/140/3 228/143/3 14/136/3
f 14/136/3 228/143/3 242/257/3 232/258/3
f 127/256/52 227/167/22 241/259/22 237/260/52
f 227/167/22 12/36/22 231/261/22 241/259/22
f 202/155/48 203/144/38 240/262/62 239/263/62
f 203/144/38 127/162/52 237/264/52 240/262/62
f 124/164/37 202/155/48 239/263/62 238/265/37
f 228/143/3 124/142/37 238/266/37 242/257/3
f 14/136/3 232/258/3 236/267/3 121/9/3
f 6/135/20 229/268/20 235/269/22 120/35/22
f 120/35/22 235/269/22 231/261/22 12/36/22
f 88/21/14 233/270/63 234/271/63 89/12/6
f 89/12/6 234/271/63 229/272/20 6/29/20
f 3/32/5 230/273/5 233/270/63 88/21/14
f 121/9/3 236/267/3 230/274/5 3/10/5
usemtl metal
f 16/41/23 17/42/23 19/43/24 18/44/24
f 20/45/25 21/46/25 23/47/26 22/48/26
f 22/48/26 23/47/26 25/49/27 24/50/27
f 24/50/27 25/49/27 27/51/28 26/52/28
f 26/52/28 27/51/28 29/53/29 28/54/29
f 28/54/29 29/53/29 17/42/23 16/41/23
f 30/55/23 31/56/23 33/57/24 32/58/24
f 34/59/25 35/60/25 37/61/26 36/62/26
f 36/62/26 37/61/26 39/63/27 38/64/27
f 38/64/27 39/63/27 41/65/28 40/66/28
f 40/66/28 41/65/28 43/67/29 42/68/29
f 42/68/29 43/67/29 31/56/23 30/55/23
f 44/69/23 45/70/23 47/71/24 46/72/24
f 48/73/25 49/74/25 51/75/26 50/76/26
f 50/76/26 51/75/26 53/77/27 52/78/27
f 52/78/27 53/77/27 55/79/28 54/80/28
f 54/80/28 55/79/28 57/81/29 56/82/29
f 56/82/29 57/81/29 45/70/23 44/69/23
f 58/83/23 59/84/23 61/85/24 60/86/24
f 62/87/25 63/88/25 65/89/26 64/90/26
f 64/90/26 65/89/26 67/91/27 66/92/27
f 66/92/27 67/91/27 69/93/28 68/94/28
f 68/94/28 69/93/28 71/95/29 70/96/29
f 70/96/29 71/95/29 59/84/23 58/83/23
f 72/97/23 73/98/23 75/99/24 74/100/24
f 76/101/25 77/102/25 79/103/26 78/104/26
f 78/104/26 79/103/26 81/105/27 80/106/27
f 80/106/27 81/105/27 83/107/28 82/108/28
f 82/108/28 83/107/28 85/109/29 84/110/29
f 84/110/29 85/109/29 73/98/23 72/97/23
f 113/119/10 107/120/2 119/121/19 114/122/10
f 104/127/33 111/128/32 105/129/32 109/125/31
f 112/130/1 107/120/2 110/27/19 108/126/1
f 113/119/10 104/127/33 109/125/31 106/28/10
f 107/120/2 113/119/10 106/28/10 110/27/19
f 107/120/2 112/130/1 116/134/1 119/121/19
f 104/127/33 113/119/10 114/122/10 118/132/31
f 111/128/32 104/127/33 118/132/31 117/131/32
f 130/171/23 132/172/54 133/173/54 131/174/23
f 134/175/55 136/176/27 137/177/27 135/178/55
f 136/176/27 138/179/26 139/180/26 137/177/27
f 138/179/26 140/181/56 141/182/56 139/180/26
f 140/181/56 142/183/57 143/184/57 141/182/56
f 142/183/57 130/171/23 131/174/23 143/184/57
f 144/185/23 146/186/54 147/187/54 145/188/23
f 148/189/55 150/190/27 151/191/27 149/192/55
f 150/190/27 152/193/26 153/194/26 151/191/27
f 152/193/26 154/195/56 155/196/56 153/194/26
f 154/195/56 156/197/57 157/198/57 155/196/56
f 156/197/57 144/185/23 145/188/23 157/198/57
f 158/199/23 160/200/54 161/201/54 159/202/23
f 162/203/55 164/204/27 165/205/27 163/206/55
f 164/204/27 166/207/26 167/208/26 165/205/27
f 166/207/26 168/209/56 169/210/56 167/208/26
f 168/209/56 170/211/57 171/212/57 169/210/56
f 170/211/57 158/199/23 159/202/23 171/212/57
f 172/213/23 174/214/54 175/215/54 173/216/23
f 176/217/55 178/218/27 179/219/27 177/220/55
f 178/218/27 180/221/26 181/222/26 179/219/27
f 180/221/26 182/223/56 183/224/56 181/222/26
f 182/223/56 184/225/57 185/226/57 183/224/56
f 184/225/57 172/213/23 173/216/23 185/226/57
f 186/227/23 188/228/54 189/229/54 187/230/23
f 190/231/55 192/232/27 193/233/27 191/234/55
f 192/232/27 194/235/26 195/236/26 193/233/27
f 194/235/26 196/237/56 197/238/56 195/236/26
f 196/237/56 198/239/57 199/240/57 197/238/56
f 198/239/57 186/227/23 187/230/23 199/240/57
f 223/248/42 224/249/42 226/250/59 220/251/35
f 218/254/61 221/253/60 105/129/32 111/128/32
f 112/130/1 108/126/1 222/160/51 220/251/35
f 223/248/42 219/159/42 221/253/60 218/254/61
f 220/251/35 222/160/51 219/159/42 223/248/42
f 220/251/35 226/250/59 116/134/1 112/130/1
f 218/254/61 225/255/60 224/249/42 223/248/42
f 111/128/32 117/131/32 225/255/60 218/254/61
usemtl Material.001
f 90/275/12 91/276/16 250/277/63
f 209/278/49 208/279/47 245/280/62
f 246/281/62 245/280/62 208/279/47 205/282/46
f 207/283/44 206/284/40 244/285/62
f 206/284/40 211/286/39 243/287/62 244/285/62
f 211/286/39 210/288/50 243/287/62
f 204/289/45 207/283/44 244/285/62 246/281/62
f 244/285/62 243/287/62 245/280/62 246/281/62
f 210/288/50 209/278/49 245/280/62 243/287/62
f 205/282/46 204/289/45 246/281/62
f 249/290/63 250/277/63 91/276/16 94/291/15
f 97/292/9 92/293/8 247/294/63 248/295/63
f 92/293/8 93/296/13 247/294/63
f 96/297/17 97/292/9 248/295/63
f 95/298/18 249/290/63 94/291/15
f 248/295/63 247/294/63 250/277/63 249/290/63
f 96/297/17 248/295/63 249/290/63 95/298/18
f 93/296/13 90/275/12 250/277/63 247/294/63
