# Blender 3.6.1
# www.blender.org
mtllib card frame.mtl
o card_frame
v -0.344000 0.000000 0.003914
v -0.344000 1.080000 0.003914
v -0.344000 0.000000 -0.003914
v -0.344000 1.080000 -0.003914
v 0.344000 0.000000 0.003914
v 0.344000 1.080000 0.003914
v 0.344000 0.000000 -0.003914
v 0.344000 1.080000 -0.003914
v -0.344000 0.857880 0.003914
v -0.344000 0.857880 -0.003914
v 0.344000 0.857880 -0.003914
v 0.344000 0.857880 0.003914
v -0.344000 0.220139 -0.003914
v 0.344000 0.220139 -0.003914
v 0.344000 0.220139 0.003914
v -0.344000 0.220139 0.003914
v 0.237945 0.000000 -0.003914
v 0.237945 1.080000 -0.003914
v 0.237945 0.000000 0.003914
v 0.237945 1.080000 0.003914
v 0.237945 0.220139 0.003914
v -0.277376 0.000000 -0.003914
v -0.277376 1.080000 0.003914
v -0.277376 0.857880 0.003914
v -0.277376 0.220139 0.003914
v -0.277376 1.080000 -0.003914
v -0.277376 0.000000 0.003914
v -0.344000 0.064680 -0.003914
v 0.344000 0.064680 -0.003914
v 0.344000 0.064680 0.003914
v -0.344000 0.064680 0.003914
v 0.237945 0.064680 0.003914
v -0.277376 0.064680 0.003914
v -0.344000 1.013837 0.003914
v -0.344000 1.013837 -0.003914
v 0.344000 1.013837 -0.003914
v 0.344000 1.013837 0.003914
v 0.237945 1.013837 0.003914
v -0.277376 1.013837 0.003914
v -0.238237 1.080000 -0.003914
v -0.238237 0.000000 0.003914
v -0.238237 0.000000 -0.003914
v -0.238237 1.080000 0.003914
v -0.238237 0.857880 0.003914
v -0.238237 0.064680 0.003914
v -0.238237 1.013837 0.003914
v -0.000146 1.080000 -0.003914
v -0.000146 0.000000 0.003914
v -0.000146 0.000000 -0.003914
v -0.000146 1.080000 0.003914
v -0.000146 0.064680 0.003914
v -0.000146 1.013837 0.003914
v 0.277224 1.080000 -0.003914
v 0.277224 0.000000 0.003914
v 0.277224 0.000000 -0.003914
v 0.277224 1.080000 0.003914
v 0.277224 0.857880 0.003914
v 0.277224 0.220139 0.003914
v 0.277224 0.064680 0.003914
v 0.277224 1.013837 0.003914
vn -1.0000 -0.0000 -0.0000
vn 1.0000 -0.0000 -0.0000
vn -0.0000 -0.0000 1.0000
vn -0.0000 -1.0000 -0.0000
vn -0.0000 1.0000 -0.0000
vt 0.000806 0.939654
vt 0.000806 1.000914
vt 0.013617 1.000914
vt 0.013617 0.939654
vt 0.986383 0.939654
vt 0.986383 1.000914
vt 0.999194 1.000914
vt 0.999194 0.939654
vt 0.097488 0.939654
vt 0.097488 1.000914
vt 0.902293 0.009446
vt 0.999194 0.009446
vt 0.999194 0.000958
vt 0.902293 0.000958
vt 0.097488 0.992426
vt 0.000806 0.992426
vt 0.097488 0.204781
vt 0.097488 0.795256
vt 0.000806 0.795256
vt 0.000806 0.204781
vt 0.986383 0.204781
vt 0.986383 0.795256
vt 0.999194 0.795256
vt 0.999194 0.204781
vt 0.013617 0.795256
vt 0.013617 0.204781
vt 0.000806 0.060844
vt 0.013617 0.060844
vt 0.986383 0.060844
vt 0.999194 0.060844
vt 0.097488 0.060844
vt 0.902293 0.060844
vt 0.902293 0.204781
vt 0.845292 0.204781
vt 0.845292 0.060844
vt 0.902293 0.992425
vt 0.845292 0.992425
vt 0.845292 1.000914
vt 0.902293 1.000914
vt 0.499788 0.009446
vt 0.845292 0.009446
vt 0.845292 0.000958
vt 0.499788 0.000958
vt 0.902293 0.939654
vt 0.845292 0.939654
vt 0.000806 0.009446
vt 0.097488 0.009446
vt 0.097488 0.000958
vt 0.000806 0.000958
vt 0.154283 0.992426
vt 0.154283 1.000914
vt 0.154283 0.939654
vt 0.154283 0.000958
vt 0.154283 0.060844
vt 0.986383 0.000958
vt 0.013617 0.000958
vt 0.154283 0.795256
vt 0.499788 0.060844
vt 0.499788 0.939654
vt 0.499788 1.000914
vt 0.499788 0.992425
vt 0.154283 0.009446
vt 0.902293 0.795256
vt 0.999194 0.992425
s 0
usemtl card
f 34/1/1 2/2/1 4/3/1 35/4/1
f 36/5/2 8/6/2 6/7/2 37/8/2
f 39/9/3 23/10/3 2/2/3 34/1/3
f 55/11/4 7/12/4 5/13/4 54/14/4
f 26/15/5 4/16/5 2/2/5 23/10/5
f 25/17/3 24/18/3 9/19/3 16/20/3
f 14/21/2 11/22/2 12/23/2 15/24/2
f 16/20/1 9/19/1 10/25/1 13/26/1
f 31/27/1 16/20/1 13/26/1 28/28/1
f 29/29/2 14/21/2 15/24/2 30/30/2
f 33/31/3 25/17/3 16/20/3 31/27/3
f 59/32/3 58/33/3 21/34/3 32/35/3
f 53/36/5 18/37/5 20/38/5 56/39/5
f 49/40/4 17/41/4 19/42/4 48/43/4
f 60/44/3 56/39/3 20/38/3 38/45/3
f 3/46/4 22/47/4 27/48/4 1/49/4
f 40/50/5 26/15/5 23/10/5 43/51/5
f 46/52/3 43/51/3 23/10/3 39/9/3
f 41/53/3 45/54/3 33/31/3 27/48/3
f 54/14/3 59/32/3 32/35/3 19/42/3
f 27/48/3 33/31/3 31/27/3 1/49/3
f 7/55/2 29/29/2 30/30/2 5/13/2
f 1/49/1 31/27/1 28/28/1 3/56/1
f 44/57/3 46/52/3 39/9/3 24/18/3
f 24/18/3 39/9/3 34/1/3 9/19/3
f 11/22/2 36/5/2 37/8/2 12/23/2
f 9/19/1 34/1/1 35/4/1 10/25/1
f 48/43/3 51/58/3 45/54/3 41/53/3
f 52/59/3 50/60/3 43/51/3 46/52/3
f 47/61/5 40/50/5 43/51/5 50/60/5
f 22/47/4 42/62/4 41/53/4 27/48/4
f 18/37/5 47/61/5 50/60/5 20/38/5
f 38/45/3 20/38/3 50/60/3 52/59/3
f 19/42/3 32/35/3 51/58/3 48/43/3
f 42/62/4 49/40/4 48/43/4 41/53/4
f 12/23/3 37/8/3 60/44/3 57/63/3
f 5/13/3 30/30/3 59/32/3 54/14/3
f 37/8/3 6/7/3 56/39/3 60/44/3
f 8/64/5 53/36/5 56/39/5 6/7/5
f 15/24/3 12/23/3 57/63/3 58/33/3
f 30/30/3 15/24/3 58/33/3 59/32/3
f 17/41/4 55/11/4 54/14/4 19/42/4
